<svg id="Layer_1" data-name="Layer 1" xmlns="http://www.w3.org/2000/svg" viewBox="0 0 520.53 100"><title>logo</title><g id="line1"><path d="M72.12,62.76a39.91,39.91,0,0,0-2.84-15.33,35.93,35.93,0,0,0-7.71-11.8,34.09,34.09,0,0,0-11.44-7.58,36.94,36.94,0,0,0-14.07-2.67,34.91,34.91,0,0,0-14,2.83A36,36,0,0,0,10.58,36,36.45,36.45,0,0,0,2.84,47.86,38.4,38.4,0,0,0,0,62.76,37.83,37.83,0,0,0,2.84,77.49,36.07,36.07,0,0,0,22.05,97.13a34.6,34.6,0,0,0,14,2.87,34.75,34.75,0,0,0,14.07-2.87,36,36,0,0,0,11.44-7.84,36.9,36.9,0,0,0,7.71-11.8A38,38,0,0,0,72.12,62.76ZM54,62.76a20.91,20.91,0,0,1-1.42,7.84,18.27,18.27,0,0,1-3.85,6.06,17.59,17.59,0,0,1-12.66,5.28,16.64,16.64,0,0,1-7-1.49,17.77,17.77,0,0,1-5.67-4,19.15,19.15,0,0,1-3.79-6.06,20.47,20.47,0,0,1-1.38-7.58,21.47,21.47,0,0,1,1.38-7.88,18.87,18.87,0,0,1,3.79-6.07,16.6,16.6,0,0,1,5.67-3.89,18.59,18.59,0,0,1,13.91,0,16.71,16.71,0,0,1,5.71,3.89,18.84,18.84,0,0,1,3.85,6.07A20.87,20.87,0,0,1,54,62.76Z" transform="translate(0 0)" style="fill:#2d3748"/><path d="M102.51,98.68V58.34a13.25,13.25,0,0,1,1-5.24,13.7,13.7,0,0,1,2.91-4.32,13.32,13.32,0,0,1,4.35-2.9,13.68,13.68,0,0,1,5.34-1.06,13,13,0,0,1,5.2,1.06,13.56,13.56,0,0,1,7.19,7.22,13.25,13.25,0,0,1,1,5.24V98.68h18V58.34a31,31,0,0,0-2.47-12.29A32.11,32.11,0,0,0,138.37,36a31.66,31.66,0,0,0-10-6.79,30.43,30.43,0,0,0-12.19-2.47A31.6,31.6,0,0,0,94.8,34.94l-5.94-6.86H84.51v70.6Z" transform="translate(0 0)" style="fill:#2d3748"/><path d="M190.91,81.41l33.75-40.67a36.41,36.41,0,0,0-12.88-11.27,36.66,36.66,0,0,0-8-3,35.67,35.67,0,0,0-8.64-1.05,36.49,36.49,0,0,0-14,2.7,34.52,34.52,0,0,0-19.21,19.38,40,40,0,0,0-2.84,15.3,38.71,38.71,0,0,0,2.84,15,36.29,36.29,0,0,0,7.74,11.77A35.66,35.66,0,0,0,195.13,100a36.15,36.15,0,0,0,8.6-1,35.21,35.21,0,0,0,8-3,36.16,36.16,0,0,0,7-4.81,35.15,35.15,0,0,0,5.77-6.4L211.35,71.52a17.67,17.67,0,0,1-2.74,4.32,16.9,16.9,0,0,1-3.82,3.3,18.35,18.35,0,0,1-4.58,2.07,17.53,17.53,0,0,1-5.08.73c-.7,0-1.4,0-2.11-.1A10.69,10.69,0,0,1,190.91,81.41Zm9.23-37.11-21,27.82a9.4,9.4,0,0,1-.86-2.11c-.22-.79-.4-1.62-.56-2.47s-.26-1.71-.33-2.54-.1-1.59-.1-2.24a21.46,21.46,0,0,1,1.39-7.95,18,18,0,0,1,3.79-6,16.61,16.61,0,0,1,5.67-3.86,18,18,0,0,1,6.95-1.35,23,23,0,0,1,2.54.14A9.85,9.85,0,0,1,200.14,44.3Z" transform="translate(0 0)" style="fill:#2d3748"/><path d="M254.13,98.68V59.79a13.46,13.46,0,0,1,8.31-12.59,13.68,13.68,0,0,1,5.34-1.06h15.89V28.21H267.78a31.93,31.93,0,0,0-21.36,8.24l-5.93-8.37h-4.35v70.6Z" transform="translate(0 0)" style="fill:#2d3748"/><path d="M322.56,81.41l33.75-40.67a36.41,36.41,0,0,0-12.88-11.27,36.66,36.66,0,0,0-8-3,35.67,35.67,0,0,0-8.64-1.05,36.49,36.49,0,0,0-14,2.7,34.52,34.52,0,0,0-19.21,19.38,40,40,0,0,0-2.84,15.3,38.71,38.71,0,0,0,2.84,15,36.29,36.29,0,0,0,7.74,11.77A35.66,35.66,0,0,0,326.78,100a36.15,36.15,0,0,0,8.6-1,35.21,35.21,0,0,0,8-3,36.16,36.16,0,0,0,7.05-4.81,35.15,35.15,0,0,0,5.77-6.4L343,71.52a17.38,17.38,0,0,1-2.74,4.32,16.9,16.9,0,0,1-3.82,3.3,18.35,18.35,0,0,1-4.58,2.07,17.53,17.53,0,0,1-5.08.73c-.7,0-1.41,0-2.11-.1A10.69,10.69,0,0,1,322.56,81.41Zm9.23-37.11-21,27.82A9.4,9.4,0,0,1,310,70c-.22-.79-.4-1.62-.56-2.47s-.26-1.71-.33-2.54-.1-1.59-.1-2.24a21.46,21.46,0,0,1,1.39-7.95,18,18,0,0,1,3.79-6,16.61,16.61,0,0,1,5.67-3.86,18,18,0,0,1,6.95-1.35,23,23,0,0,1,2.54.14A9.85,9.85,0,0,1,331.79,44.3Z" transform="translate(0 0)" style="fill:#2d3748"/><path d="M436.15,98.68V28.21H431.8l-7,8.38a48.91,48.91,0,0,0-5.37-4.42,41.24,41.24,0,0,0-6-3.56,34.86,34.86,0,0,0-6.52-2.37,27.48,27.48,0,0,0-6.79-.86,36.07,36.07,0,0,0-14,2.73,35.25,35.25,0,0,0-11.47,7.68,35.92,35.92,0,0,0-7.74,11.84A39.35,39.35,0,0,0,364,62.76a41.26,41.26,0,0,0,2.84,15.75,34.11,34.11,0,0,0,7.74,11.7,33.15,33.15,0,0,0,11.47,7.28,38.7,38.7,0,0,0,14,2.51,27.12,27.12,0,0,0,6.76-.86,36.77,36.77,0,0,0,6.49-2.34,40.21,40.21,0,0,0,6-3.49A58.59,58.59,0,0,0,424.81,89l7,9.69ZM418,62.76a18.61,18.61,0,0,1-1.42,7.15A20.35,20.35,0,0,1,412.74,76a18.9,18.9,0,0,1-5.7,4.28,15.4,15.4,0,0,1-7,1.62,19.19,19.19,0,0,1-7-1.26A15.69,15.69,0,0,1,387.47,77a17.09,17.09,0,0,1-3.79-6,22.52,22.52,0,0,1-1.39-8.2,22.54,22.54,0,0,1,1.39-8.21,17.09,17.09,0,0,1,3.79-6,15.84,15.84,0,0,1,5.66-3.7,19.4,19.4,0,0,1,7-1.25,15.4,15.4,0,0,1,7,1.62,18.9,18.9,0,0,1,5.7,4.28,20.48,20.48,0,0,1,3.86,6.13A18.62,18.62,0,0,1,418,62.76Z" transform="translate(0 0)" style="fill:#2d3748"/><path d="M520.53,98.68V0H502.4V33a13.69,13.69,0,0,0-3.56-3.56,20.34,20.34,0,0,0-4.51-2.34,26.51,26.51,0,0,0-4.95-1.29,32.32,32.32,0,0,0-4.91-.39,34.91,34.91,0,0,0-14,2.83A35.87,35.87,0,0,0,459,36.06a36.91,36.91,0,0,0-7.74,11.86,38.46,38.46,0,0,0-2.84,14.84,38.35,38.35,0,0,0,2.84,14.86A36.64,36.64,0,0,0,459,89.42a35.68,35.68,0,0,0,11.47,7.78,35.23,35.23,0,0,0,14,2.8,27.06,27.06,0,0,0,6.76-.86,36.77,36.77,0,0,0,6.49-2.34,40.21,40.21,0,0,0,6-3.49A57.3,57.3,0,0,0,509.19,89l7,9.69ZM502.4,62.76A18.61,18.61,0,0,1,501,69.91,20.52,20.52,0,0,1,497.13,76a19.15,19.15,0,0,1-5.7,4.28,15.47,15.47,0,0,1-7,1.62,16.28,16.28,0,0,1-7-1.52,17.54,17.54,0,0,1-5.67-4.15,20.13,20.13,0,0,1-5.18-13.51,22,22,0,0,1,1.39-8,17.65,17.65,0,0,1,3.79-6,16.29,16.29,0,0,1,5.67-3.79,18.33,18.33,0,0,1,7-1.32,15.47,15.47,0,0,1,7,1.62,19.15,19.15,0,0,1,5.7,4.28A20.65,20.65,0,0,1,501,55.6,18.62,18.62,0,0,1,502.4,62.76Z" transform="translate(0 0)" style="fill:#2d3748"/></g></svg>