<svg id="Layer_1" data-name="Layer 1" xmlns="http://www.w3.org/2000/svg" viewBox="0 0 52 50"><title>logomark</title><g id="lockup4-icon"><path d="M52,25.25V25C52,11.21,40.34,0,26,0S0,11.21,0,25v.34s0,0,0,.05C.23,39,11.8,50,26,50c13.46,0,24.57-9.89,25.87-22.51A18.46,18.46,0,0,0,52,25.25ZM26,1.15c13.68,0,24.81,10.7,24.81,23.85a23.21,23.21,0,0,1-.13,2.37c-1.2,10.32-11,18.68-22.56,18.68-11.88,0-17-5.73-19.18-11.86a20.79,20.79,0,0,0,17.59,9.53c10.54,0,19.12-8.24,19.12-18.38h0v-.08a1.85,1.85,0,0,0,0-.23C45.53,14.5,39.77,3.39,23.88,3.39a24.82,24.82,0,0,0-18.1,7.82A25.09,25.09,0,0,1,26,1.15ZM44.46,25.34h0c0,9.51-8.05,17.24-17.93,17.24-10.09,0-18.84-8-18.87-17.19,0-.05.11-.09.11-.14h0C7.77,15.75,15.7,8,25.58,8c10.08,0,18.86,8,18.93,17.13C44.51,25.21,44.46,25.28,44.46,25.34ZM1.2,25.18C1.3,14,11.64,4.54,23.88,4.54,34.87,4.54,40,10,42.4,15.4A20.86,20.86,0,0,0,25.5,6.87C15,6.87,6.41,15.12,6.41,25.25v.09s0,0,0,0c0,8.21,2.9,21.83,21.75,21.83a24.9,24.9,0,0,0,15.41-5.34,25.24,25.24,0,0,1-17.54,7C12.39,48.85,1.3,38.25,1.2,25.18Z" transform="translate(0 0)" style="fill:#2d3748"/></g></svg>