<?xml version="1.0" encoding="utf-8"?>
<!-- Generator: Adobe Illustrator 22.1.0, SVG Export Plug-In . SVG Version: 6.00 Build 0)  -->
<svg version="1.1" id="Layer_1" xmlns="http://www.w3.org/2000/svg" xmlns:xlink="http://www.w3.org/1999/xlink" x="0px" y="0px"
	 viewBox="0 0 1200 630" style="enable-background:new 0 0 1200 630;" xml:space="preserve">
<style type="text/css">
	.st0{fill:#2D3748;}
</style>
<g id="lockup4-icon" transform="translate(-7.203325161862311 -9.205422744345347) scale(0.6805221005097166)">
	<g>
		<path class="st0" d="M1087.1,296.8c0-0.1,0-0.2-0.1-0.2c0-0.6,0-1.1,0-1.7c0-103.3-87.4-187.3-194.8-187.3s-194.8,84-194.8,187.3
			c0,0.4,0,0.9,0,1.3c0,0.4,0,0.8,0,1.3c0,0.1,0.1,0.2,0.1,0.4c1.6,101.9,88.3,184.4,194.7,184.4c100.9,0,184-74.1,193.8-168.6
			C1086.7,308.1,1087.1,302.5,1087.1,296.8z M892.3,116.2c102.5,0,185.8,80.2,185.8,178.7c0,6-0.3,11.9-0.9,17.7
			c-9,77.4-82.7,140-169.1,140c-89,0-127.7-43-143.7-88.9c26.2,42.2,76,71.4,131.8,71.4c79,0,143.2-61.8,143.2-137.7l0-0.1l0-0.5
			c0,0,0-0.1,0-0.1c0-0.6,0-1.2-0.1-1.7c-0.9-78.8-44-162-163-162c-53.6,0-102.5,23-135.6,58.6C774.5,146.1,829.8,116.2,892.3,116.2
			z M1030.5,297.5L1030.5,297.5c0,71.2-60.2,129.1-134.3,129.1c-75.6,0-141.1-60.1-141.4-128.8c0-0.3,0.8-0.7,0.8-1v0
			c0-71.2,59.4-129.1,133.5-129.1c75.5,0,141.3,59.9,141.8,128.4C1030.9,296.5,1030.5,297,1030.5,297.5z M706.5,296.3
			c0.7-83.9,78.2-154.6,169.9-154.6c82.3,0,120.8,40.9,138.7,81.4c-27.2-38.1-74.2-63.9-126.6-63.9c-79,0-143,61.8-143,137.7v0.6
			c0,0.1-0.2,0.2-0.2,0.3c0.2,61.5,21.8,163.5,163,163.5c41.9,0,82.5-14.1,115.4-40c-33.6,32.3-80.1,52.4-131.3,52.4
			C790.3,473.6,707.2,394.2,706.5,296.3z"/>
	</g>
</g>
<g transform="translate(-263.2304812129186 98.68160843770599) scale(1.8750457774848017)">
	<g id="line1">
		<path class="st0" d="M233.4,218c0-6.8-1.1-12.9-3.4-18.5c-2.3-5.5-5.4-10.3-9.3-14.2c-3.9-3.9-8.5-7-13.8-9.1
			c-5.3-2.1-10.9-3.2-17-3.2c-6,0-11.6,1.1-16.9,3.4c-5.3,2.3-9.9,5.4-13.8,9.4c-3.9,4-7.1,8.8-9.3,14.3c-2.3,5.5-3.4,11.5-3.4,18
			c0,6.4,1.1,12.3,3.4,17.8c2.3,5.5,5.4,10.2,9.3,14.2c3.9,4,8.6,7.2,13.8,9.5c5.3,2.3,10.9,3.5,16.9,3.5c6,0,11.7-1.2,17-3.5
			c5.3-2.3,9.9-5.5,13.8-9.5c3.9-4,7-8.7,9.3-14.2C232.3,230.3,233.4,224.4,233.4,218z M211.5,218c0,3.4-0.6,6.6-1.7,9.5
			c-1.1,2.9-2.7,5.3-4.7,7.3c-2,2-4.3,3.6-6.9,4.7c-2.6,1.1-5.4,1.7-8.4,1.7c-3,0-5.8-0.6-8.4-1.8c-2.6-1.2-4.9-2.8-6.8-4.9
			c-1.9-2.1-3.5-4.5-4.6-7.3c-1.1-2.8-1.7-5.9-1.7-9.1c0-3.5,0.6-6.7,1.7-9.5c1.1-2.8,2.6-5.3,4.6-7.3c1.9-2,4.2-3.6,6.8-4.7
			c2.6-1.1,5.4-1.6,8.4-1.6c3,0,5.8,0.5,8.4,1.6c2.6,1.1,4.9,2.7,6.9,4.7c2,2,3.5,4.5,4.7,7.3C211,211.4,211.5,214.5,211.5,218z"/>
		<path class="st0" d="M270.1,261.4v-48.7c0-2.2,0.4-4.3,1.3-6.3c0.8-2,2-3.7,3.5-5.2c1.5-1.5,3.2-2.7,5.2-3.5s4.2-1.3,6.4-1.3
			c2.2,0,4.3,0.4,6.3,1.3c2,0.8,3.7,2,5.2,3.5c1.5,1.5,2.7,3.2,3.5,5.2c0.8,2,1.3,4.1,1.3,6.3v48.7h21.7v-48.7c0-5.2-1-10.2-3-14.8
			c-2-4.6-4.7-8.7-8.2-12.2c-3.4-3.5-7.5-6.2-12.1-8.2c-4.6-2-9.5-3-14.7-3c-4.8,0-9.5,0.9-13.9,2.6c-4.4,1.7-8.4,4.2-11.9,7.4
			l-7.2-8.3h-5.2v85.2H270.1z"/>
		<path class="st0" d="M376.7,240.5l40.7-49.1c-2-2.9-4.3-5.4-7-7.8c-2.7-2.3-5.5-4.3-8.5-5.8c-3-1.6-6.3-2.8-9.7-3.7
			c-3.4-0.8-6.9-1.3-10.4-1.3c-6,0-11.6,1.1-16.9,3.3c-5.3,2.2-9.9,5.2-13.8,9.1c-3.9,3.9-7.1,8.7-9.3,14.2
			c-2.3,5.6-3.4,11.7-3.4,18.4c0,6.6,1.1,12.6,3.4,18.1c2.3,5.5,5.4,10.2,9.3,14.2c4,4,8.6,7.1,13.8,9.3c5.3,2.2,10.9,3.3,16.9,3.3
			c3.6,0,7-0.4,10.4-1.2c3.4-0.8,6.6-2,9.6-3.6c3-1.6,5.9-3.5,8.5-5.8c2.6-2.3,4.9-4.8,7-7.7l-15.9-16c-0.8,1.9-1.9,3.6-3.3,5.2
			c-1.4,1.6-2.9,2.9-4.6,4c-1.7,1.1-3.6,1.9-5.5,2.5c-2,0.6-4,0.9-6.1,0.9c-0.8,0-1.7,0-2.5-0.1C378.4,241,377.6,240.8,376.7,240.5z
			 M387.9,195.8l-25.3,33.6c-0.4-0.7-0.8-1.6-1-2.5c-0.3-1-0.5-1.9-0.7-3c-0.2-1-0.3-2.1-0.4-3.1s-0.1-1.9-0.1-2.7
			c0-3.6,0.6-6.7,1.7-9.6c1.1-2.8,2.6-5.3,4.6-7.3c1.9-2,4.2-3.6,6.8-4.7c2.6-1.1,5.4-1.6,8.4-1.6c1.1,0,2.1,0.1,3.1,0.2
			C385.8,195.2,386.8,195.4,387.9,195.8z"/>
		<path class="st0" d="M453,261.4v-46.9c0-2.3,0.4-4.4,1.3-6.4c0.8-2,2-3.8,3.5-5.2c1.5-1.5,3.2-2.7,5.2-3.5c2-0.8,4.2-1.3,6.4-1.3
			h19.2v-21.6h-19.2c-4.8,0-9.4,0.9-13.8,2.6c-4.5,1.7-8.4,4.2-11.9,7.4l-7.2-10.1h-5.2v85.2H453z"/>
		<path class="st0" d="M535.5,240.5l40.7-49.1c-2-2.9-4.3-5.4-7-7.8c-2.6-2.3-5.5-4.3-8.5-5.8c-3-1.6-6.3-2.8-9.7-3.7
			c-3.4-0.8-6.9-1.3-10.4-1.3c-6,0-11.6,1.1-16.9,3.3s-9.9,5.2-13.8,9.1c-3.9,3.9-7.1,8.7-9.3,14.2c-2.3,5.6-3.4,11.7-3.4,18.4
			c0,6.6,1.1,12.6,3.4,18.1c2.3,5.5,5.4,10.2,9.3,14.2c3.9,4,8.6,7.1,13.8,9.3c5.3,2.2,10.9,3.3,16.9,3.3c3.6,0,7-0.4,10.4-1.2
			c3.4-0.8,6.6-2,9.6-3.6c3-1.6,5.9-3.5,8.5-5.8c2.6-2.3,4.9-4.8,7-7.7l-15.9-16c-0.8,1.9-1.9,3.6-3.3,5.2c-1.4,1.6-2.9,2.9-4.6,4
			c-1.7,1.1-3.6,1.9-5.5,2.5c-2,0.6-4,0.9-6.1,0.9c-0.8,0-1.7,0-2.5-0.1C537.2,241,536.4,240.8,535.5,240.5z M546.7,195.8
			l-25.3,33.6c-0.4-0.7-0.8-1.6-1-2.5c-0.3-1-0.5-1.9-0.7-3c-0.2-1-0.3-2.1-0.4-3.1c-0.1-1-0.1-1.9-0.1-2.7c0-3.6,0.6-6.7,1.7-9.6
			c1.1-2.8,2.6-5.3,4.6-7.3c1.9-2,4.2-3.6,6.8-4.7c2.6-1.1,5.4-1.6,8.4-1.6c1.1,0,2.1,0.1,3.1,0.2
			C544.7,195.2,545.7,195.4,546.7,195.8z"/>
		<path class="st0" d="M672.5,261.4v-85h-5.2l-8.4,10.1c-2-1.9-4.2-3.7-6.5-5.3c-2.3-1.6-4.7-3.1-7.3-4.3s-5.2-2.2-7.9-2.9
			c-2.7-0.7-5.4-1-8.2-1c-6,0-11.6,1.1-16.9,3.3c-5.3,2.2-9.9,5.3-13.8,9.3c-4,4-7.1,8.7-9.3,14.3c-2.3,5.5-3.4,11.6-3.4,18.3
			c0,7.1,1.1,13.4,3.4,19c2.3,5.6,5.4,10.3,9.3,14.1c3.9,3.8,8.6,6.8,13.8,8.8c5.3,2,10.9,3,16.9,3c2.8,0,5.5-0.3,8.2-1
			c2.7-0.7,5.3-1.6,7.8-2.8s5-2.6,7.3-4.2c2.3-1.6,4.5-3.4,6.6-5.2l8.4,11.7H672.5z M650.7,218c0,3-0.6,5.8-1.7,8.6
			c-1.1,2.8-2.7,5.2-4.7,7.4c-2,2.1-4.3,3.9-6.9,5.2c-2.6,1.3-5.4,1.9-8.4,1.9c-3,0-5.8-0.5-8.4-1.5c-2.6-1-4.9-2.5-6.8-4.5
			c-1.9-2-3.5-4.4-4.6-7.3c-1.1-2.9-1.7-6.2-1.7-9.9c0-3.7,0.6-7,1.7-9.9c1.1-2.9,2.6-5.3,4.6-7.3c1.9-2,4.2-3.4,6.8-4.5
			c2.6-1,5.4-1.5,8.4-1.5c3,0,5.8,0.6,8.4,1.9c2.6,1.3,4.9,3,6.9,5.2c2,2.1,3.5,4.6,4.7,7.4C650.1,212.2,650.7,215.1,650.7,218z"/>
		<path class="st0" d="M774.3,261.4v-119h-21.9v39.8c-1.2-1.7-2.6-3.1-4.3-4.3c-1.7-1.2-3.5-2.1-5.4-2.8c-1.9-0.7-3.9-1.2-6-1.6
			c-2-0.3-4-0.5-5.9-0.5c-6,0-11.6,1.1-16.9,3.4s-9.9,5.4-13.8,9.5c-3.9,4-7.1,8.8-9.3,14.3c-2.3,5.5-3.4,11.5-3.4,17.9
			c0,6.5,1.1,12.4,3.4,17.9c2.3,5.5,5.4,10.2,9.3,14.2c3.9,4,8.6,7.1,13.8,9.4c5.3,2.3,10.9,3.4,16.9,3.4c2.8,0,5.5-0.3,8.1-1
			c2.7-0.7,5.3-1.6,7.8-2.8s5-2.6,7.3-4.2c2.3-1.6,4.5-3.4,6.6-5.2l8.4,11.7H774.3z M752.5,218c0,3-0.6,5.8-1.7,8.6
			c-1.1,2.8-2.7,5.2-4.7,7.4s-4.3,3.9-6.9,5.2c-2.6,1.3-5.4,1.9-8.4,1.9c-3,0-5.8-0.6-8.4-1.8c-2.6-1.2-4.9-2.9-6.8-5
			c-1.9-2.1-3.5-4.6-4.6-7.4c-1.1-2.8-1.7-5.8-1.7-8.9c0-3.6,0.6-6.8,1.7-9.7c1.1-2.9,2.6-5.3,4.6-7.3c1.9-2,4.2-3.5,6.8-4.6
			c2.6-1.1,5.4-1.6,8.4-1.6c3,0,5.8,0.6,8.4,1.9c2.6,1.3,4.9,3,6.9,5.2s3.5,4.6,4.7,7.4C751.9,212.2,752.5,215.1,752.5,218z"/>
	</g>
</g>
</svg>
